<svg width="426.667" height="426.667" xmlns="http://www.w3.org/2000/svg">

 <g>
  <title>background</title>
  <rect fill="none" id="canvas_background" height="602" width="802" y="-1" x="-1"/>
 </g>
 <g>
  <title>Layer 1</title>
  <g id="svg_1">
   <g id="svg_2">
    <g id="svg_3">
     <path fill="#589658" id="svg_4" d="m40.533,213.333c0,-36.48 29.653,-66.133 66.133,-66.133l85.334,0l0,-40.533l-85.333,0c-58.88,0 -106.667,47.786 -106.667,106.666s47.787,106.667 106.667,106.667l85.333,0l0,-40.533l-85.333,0c-36.48,0 -66.134,-29.654 -66.134,-66.134z"/>
     <rect fill="#589658" id="svg_5" height="42.667" width="170.667" y="192" x="128"/>
     <path fill="#589658" id="svg_6" d="m320,106.667l-85.333,0l0,40.533l85.333,0c36.48,0 66.133,29.653 66.133,66.133s-29.653,66.134 -66.133,66.134l-85.333,0l0,40.533l85.333,0c58.88,0 106.667,-47.787 106.667,-106.667s-47.787,-106.666 -106.667,-106.666z"/>
    </g>
   </g>
  </g>
  <g id="svg_7"/>
  <g id="svg_8"/>
  <g id="svg_9"/>
  <g id="svg_10"/>
  <g id="svg_11"/>
  <g id="svg_12"/>
  <g id="svg_13"/>
  <g id="svg_14"/>
  <g id="svg_15"/>
  <g id="svg_16"/>
  <g id="svg_17"/>
  <g id="svg_18"/>
  <g id="svg_19"/>
  <g id="svg_20"/>
  <g id="svg_21"/>
 </g>
</svg>