<svg xmlns="http://www.w3.org/2000/svg" width="44.249" height="22.125" viewBox="0 0 44.249 22.125">
  <g id="link" transform="translate(0 -106.667)">
    <g id="Group_8" data-name="Group 8" transform="translate(0 106.667)">
      <g id="Group_7" data-name="Group 7">
        <path id="Path_11" data-name="Path 11" d="M4.2,117.729a6.865,6.865,0,0,1,6.859-6.859h8.85v-4.2h-8.85a11.062,11.062,0,1,0,0,22.125h8.85v-4.2h-8.85A6.865,6.865,0,0,1,4.2,117.729Z" transform="translate(0 -106.667)" fill="#a0a0a0"/>
        <rect id="Rectangle_25" data-name="Rectangle 25" width="17.7" height="4.425" transform="translate(13.275 8.85)" fill="#a0a0a0"/>
        <path id="Path_12" data-name="Path 12" d="M243.517,106.667h-8.85v4.2h8.85a6.859,6.859,0,0,1,0,13.717h-8.85v4.2h8.85a11.062,11.062,0,1,0,0-22.125Z" transform="translate(-210.33 -106.667)" fill="#a0a0a0"/>
      </g>
    </g>
  </g>
</svg>
