<svg width="800" height="600" xmlns="http://www.w3.org/2000/svg">
 <!-- Created with Method Draw - http://github.com/duopixel/Method-Draw/ -->

 <g>
  <title>background</title>
  <rect fill="#fff" id="canvas_background" height="602" width="802" y="-1" x="-1"/>
  <g display="none" overflow="visible" y="0" x="0" height="100%" width="100%" id="canvasGrid">
   <rect fill="url(#gridpattern)" stroke-width="0" y="0" x="0" height="100%" width="100%"/>
  </g>
 </g>
 <g>
  <title>Layer 1</title>
  <g id="svg_26">
   <g transform="matrix(0.21972622722400106,0,0,0.21972622722400106,0,0) " id="svg_5">
    <g id="svg_6">
     <g id="svg_7">
      <path fill="#2d932d" id="svg_8" d="m1647.64665,1365.33495c0,-36.48 29.653,-66.133 66.133,-66.133l85.334,0l0,-40.533l-85.333,0c-58.88,0 -106.667,47.786 -106.667,106.666s47.787,106.667 106.667,106.667l85.333,0l0,-40.533l-85.333,0c-36.48,0 -66.134,-29.654 -66.134,-66.134z"/>
      <rect fill="#2d932d" id="svg_9" height="42.667" width="170.667" y="1344.00195" x="1735.11365"/>
      <path fill="#2d932d" id="svg_10" d="m1927.11365,1258.66895l-85.333,0l0,40.533l85.333,0c36.48,0 66.133,29.653 66.133,66.133s-29.653,66.134 -66.133,66.134l-85.333,0l0,40.533l85.333,0c58.88,0 106.667,-47.787 106.667,-106.667s-47.787,-106.666 -106.667,-106.666z"/>
     </g>
    </g>
   </g>
   <g transform="matrix(0.21972622722400106,0,0,0.21972622722400106,0,0) " id="svg_11"/>
   <g transform="matrix(0.21972622722400106,0,0,0.21972622722400106,0,0) " id="svg_12"/>
   <g transform="matrix(0.21972622722400106,0,0,0.21972622722400106,0,0) " id="svg_13"/>
   <g transform="matrix(0.21972622722400106,0,0,0.21972622722400106,0,0) " id="svg_14"/>
   <g transform="matrix(0.21972622722400106,0,0,0.21972622722400106,0,0) " id="svg_15"/>
   <g transform="matrix(0.21972622722400106,0,0,0.21972622722400106,0,0) " id="svg_16"/>
   <g transform="matrix(0.21972622722400106,0,0,0.21972622722400106,0,0) " id="svg_17"/>
   <g transform="matrix(0.21972622722400106,0,0,0.21972622722400106,0,0) " id="svg_18"/>
   <g transform="matrix(0.21972622722400106,0,0,0.21972622722400106,0,0) " id="svg_19"/>
   <g transform="matrix(0.21972622722400106,0,0,0.21972622722400106,0,0) " id="svg_20"/>
   <g transform="matrix(0.21972622722400106,0,0,0.21972622722400106,0,0) " id="svg_21"/>
   <g transform="matrix(0.21972622722400106,0,0,0.21972622722400106,0,0) " id="svg_22"/>
   <g transform="matrix(0.21972622722400106,0,0,0.21972622722400106,0,0) " id="svg_23"/>
   <g transform="matrix(0.21972622722400106,0,0,0.21972622722400106,0,0) " id="svg_24"/>
   <g transform="matrix(0.21972622722400106,0,0,0.21972622722400106,0,0) " id="svg_25"/>
  </g>
 </g>
</svg>