<svg xmlns="http://www.w3.org/2000/svg" width="67.459" height="67.459" viewBox="0 0 67.459 67.459"><defs><style>.a{fill:#6ea4bf;}</style></defs><g transform="translate(0 0)"><path class="a" d="M26,0H4.919A4.924,4.924,0,0,0,0,4.919V17.567a4.924,4.924,0,0,0,4.919,4.919H26a4.924,4.924,0,0,0,4.919-4.919V4.919A4.924,4.924,0,0,0,26,0Zm0,0" transform="translate(0 0)"/><path class="a" d="M26,213.332H4.919A4.924,4.924,0,0,0,0,218.251v29.513a4.924,4.924,0,0,0,4.919,4.919H26a4.924,4.924,0,0,0,4.919-4.919V218.251A4.924,4.924,0,0,0,26,213.332Zm0,0" transform="translate(0 -185.224)"/><path class="a" d="M303.332,341.332H282.251a4.924,4.924,0,0,0-4.919,4.919V358.9a4.924,4.924,0,0,0,4.919,4.919h21.081a4.924,4.924,0,0,0,4.919-4.919V346.251A4.924,4.924,0,0,0,303.332,341.332Zm0,0" transform="translate(-240.792 -296.359)"/><path class="a" d="M303.332,0H282.251a4.924,4.924,0,0,0-4.919,4.919V34.432a4.924,4.924,0,0,0,4.919,4.919h21.081a4.924,4.924,0,0,0,4.919-4.919V4.919A4.924,4.924,0,0,0,303.332,0Zm0,0" transform="translate(-240.792 0)"/></g></svg>