<svg xmlns="http://www.w3.org/2000/svg" width="262.17" height="211" viewBox="0 0 262.17 211">
  <defs>
    <style>
      .cls-1 {
        fill: #f8f8f8;
      }
    </style>
  </defs>
  <g id="Group_33" data-name="Group 33" transform="translate(1311.384 267)">
    <path id="Rectangle_73" data-name="Rectangle 73" class="cls-1" d="M40,0h81a40,40,0,0,1,40,40V211a0,0,0,0,1,0,0H0a0,0,0,0,1,0,0V40A40,40,0,0,1,40,0Z" transform="translate(-1261 -267)"/>
    <path id="Path_19" data-name="Path 19" class="cls-1" d="M916.623-1040.63c.076,51.465,51.282,51.423,51.282,51.423H916.623Z" transform="translate(-2017.119 886.487)"/>
    <path id="Path_20" data-name="Path 20" class="cls-1" d="M967.709-1040.63c-.076,51.465-51.086,51.423-51.086,51.423h51.086Z" transform="translate(-2228.007 886.487)"/>
  </g>
</svg>
